<svg xmlns="http://www.w3.org/2000/svg" viewBox="0 0 120 120" width="100%" height="100%">
  <rect width="120" height="120" fill="#07111F" rx="16"/>

  <path d="M 15 110 Q 60 90 105 110" fill="none" stroke="#B185DB" stroke-width="1.5" opacity="0.4"/>
  <circle cx="60" cy="100" r="3" fill="#B185DB" opacity="0.8"/>

  <g stroke="#00BFFF" stroke-width="1" stroke-dasharray="3,3" opacity="0.5">
    <line x1="60" y1="22" x2="28" y2="60" />
    <line x1="28" y1="60" x2="92" y2="60" />
    <line x1="92" y1="60" x2="60" y2="22" />
  </g>

  <g stroke="#00F5D4" stroke-width="1.5" opacity="0.9">
    <line x1="60" y1="26" x2="60" y2="39" />
    <line x1="33" y1="56" x2="48" y2="50" />
    <line x1="87" y1="56" x2="72" y2="50" />
  </g>

  <g stroke="#00F5D4" stroke-width="1.5" stroke-dasharray="4,2" opacity="0.9">
    <line x1="60" y1="62" x2="60" y2="95" />
    <polyline points="56,90 60,96 64,90" fill="none" stroke-dasharray="none" />
  </g>

  <g transform="translate(52, 42)">
    <rect x="0" y="0" width="16" height="16" rx="2" fill="#07111F" stroke="#00F5D4" stroke-width="1.5"/>
    <circle cx="8" cy="8" r="3" fill="#00F5D4"/>
    <line x1="-3" y1="4" x2="0" y2="4" stroke="#00F5D4" stroke-width="1"/>
    <line x1="-3" y1="12" x2="0" y2="12" stroke="#00F5D4" stroke-width="1"/>
    <line x1="16" y1="4" x2="19" y2="4" stroke="#00F5D4" stroke-width="1"/>
    <line x1="16" y1="12" x2="19" y2="12" stroke="#00F5D4" stroke-width="1"/>
    <line x1="4" y1="-3" x2="4" y2="0" stroke="#00F5D4" stroke-width="1"/>
    <line x1="12" y1="-3" x2="12" y2="0" stroke="#00F5D4" stroke-width="1"/>
  </g>

  <circle cx="60" cy="22" r="4" fill="#B185DB" stroke="#FFFFFF" stroke-width="1"/>
  <circle cx="28" cy="60" r="4" fill="#B185DB" stroke="#FFFFFF" stroke-width="1"/>
  <circle cx="92" cy="60" r="4" fill="#B185DB" stroke="#FFFFFF" stroke-width="1"/>
</svg>
