<svg xmlns="http://www.w3.org/2000/svg" viewBox="0 0 120 120" width="100%" height="100%">
  <rect width="120" height="120" fill="#07111F" rx="16"/>

  <g transform="translate(28, 60)">
    <polygon points="0,-16 -14,10 14,10" fill="none" stroke="#B185DB" stroke-width="1.5" stroke-linejoin="round"/>
    
    <circle cx="0" cy="-16" r="4" fill="#B185DB" stroke="#FFFFFF" stroke-width="1"/>
    <circle cx="-14" cy="10" r="4" fill="#B185DB" stroke="#FFFFFF" stroke-width="1"/>
    <circle cx="14" cy="10" r="4" fill="#B185DB" stroke="#FFFFFF" stroke-width="1"/>
  </g>

  <g transform="translate(0, 0)">
    <path d="M 50 48 Q 58 60 50 72" fill="none" stroke="#00BFFF" opacity="0.3" stroke-width="1.5"/>
    <path d="M 54 44 Q 64 60 54 76" fill="none" stroke="#00BFFF" opacity="0.6" stroke-width="1.5"/>
    
    <g stroke="#00F5D4" stroke-width="2" stroke-linecap="round" stroke-linejoin="round">
      <line x1="48" y1="60" x2="72" y2="60"/>
      <polyline points="64,52 72,60 64,68"/>
    </g>
  </g>

  <g transform="translate(94, 60)">
    <g stroke="#00F5D4" stroke-width="1" stroke-dasharray="2,2" opacity="0.6">
      <line x1="0" y1="-26" x2="-22" y2="-6"/>
      <line x1="0" y1="-26" x2="22" y2="-6"/>
      <line x1="-22" y1="-6" x2="-14" y2="22"/>
      <line x1="22" y1="-6" x2="14" y2="22"/>
      <line x1="-14" y1="22" x2="14" y2="22"/>
      <line x1="-22" y1="-6" x2="14" y2="22"/>
      <line x1="22" y1="-6" x2="-14" y2="22"/>
    </g>
    
    <circle cx="0" cy="-26" r="3.5" fill="#07111F" stroke="#00F5D4" stroke-width="1.5"/>
    <circle cx="-22" cy="-6" r="3.5" fill="#07111F" stroke="#00F5D4" stroke-width="1.5"/>
    <circle cx="22" cy="-6" r="3.5" fill="#07111F" stroke="#00F5D4" stroke-width="1.5"/>
    <circle cx="-14" cy="22" r="3.5" fill="#07111F" stroke="#00F5D4" stroke-width="1.5"/>
    <circle cx="14" cy="22" r="3.5" fill="#07111F" stroke="#00F5D4" stroke-width="1.5"/>
  </g>
</svg>
